<svg width="190" height="193" viewBox="0 0 190 193" fill="none" xmlns="http://www.w3.org/2000/svg">
<path d="M173.751 88.1343H148.172C146.805 88.1343 145.693 89.2424 145.693 90.613C145.693 91.9837 146.801 93.0918 148.172 93.0918H173.751C175.118 93.0918 176.23 91.9837 176.23 90.613C176.23 89.2424 175.122 88.1343 173.751 88.1343Z" fill="#3CB7A8"/>
<path d="M43.5364 90.613C43.5364 89.2462 42.4283 88.1343 41.0576 88.1343H15.4788C14.112 88.1343 13 89.2424 13 90.613C13 91.9837 14.1081 93.0918 15.4788 93.0918H41.0576C42.4244 93.0918 43.5364 91.9837 43.5364 90.613Z" fill="#3CB7A8"/>
<path d="M132.485 55.2236C133.118 55.2236 133.755 54.9803 134.238 54.4977L152.327 36.4091C153.296 35.44 153.296 33.8724 152.327 32.9033C151.357 31.9342 149.79 31.9342 148.821 32.9033L130.732 50.992C129.763 51.9611 129.763 53.5286 130.732 54.4977C131.215 54.9803 131.852 55.2236 132.485 55.2236Z" fill="#3CB7A8"/>
<path d="M54.9917 126.732L36.9031 144.821C35.934 145.79 35.934 147.358 36.9031 148.327C37.3857 148.809 38.0227 149.053 38.6559 149.053C39.2891 149.053 39.9262 148.809 40.4088 148.327L58.4974 130.238C59.4665 129.269 59.4665 127.702 58.4974 126.732C57.5283 125.763 55.9608 125.763 54.9917 126.732Z" fill="#3CB7A8"/>
<path d="M94.6171 39.5364C95.9838 39.5364 97.0958 38.4283 97.0958 37.0576V11.4787C97.0958 10.112 95.9877 9 94.6171 9C93.2464 9 92.1383 10.1081 92.1383 11.4787V37.0576C92.1383 38.4244 93.2464 39.5364 94.6171 39.5364Z" fill="#3CB7A8"/>
<path d="M54.9917 54.4977C55.4743 54.9803 56.1114 55.2236 56.7446 55.2236C57.3778 55.2236 58.0148 54.9803 58.4974 54.4977C59.4665 53.5286 59.4665 51.9611 58.4974 50.992L40.4088 32.9033C39.4397 31.9342 37.8722 31.9342 36.9031 32.9033C35.934 33.8724 35.934 35.44 36.9031 36.4091L54.9917 54.4977Z" fill="#3CB7A8"/>
<path d="M134.238 126.732C133.269 125.763 131.701 125.763 130.732 126.732C129.763 127.702 129.763 129.269 130.732 130.238L148.821 148.327C149.303 148.809 149.941 149.053 150.574 149.053C151.207 149.053 151.844 148.809 152.327 148.327C153.296 147.358 153.296 145.79 152.327 144.821L134.238 126.732Z" fill="#3CB7A8"/>
<path d="M94.6131 57.6057C74.401 57.6057 57.9532 74.0534 57.9532 94.2656C57.9532 102.86 60.9262 110.771 65.8991 117.034C65.9957 117.184 66.1076 117.323 66.2389 117.458C66.2466 117.458 66.2543 117.474 66.2582 117.478C66.6481 117.956 67.0497 118.42 67.4628 118.875C70.8411 123.134 77.8604 134.172 77.8604 143.369V162.404C77.8604 163.284 78.3314 164.099 79.092 164.543L84.648 167.774L85.4356 172.13C85.648 173.307 86.675 174.168 87.8757 174.168H101.35C102.551 174.168 103.574 173.307 103.791 172.13L104.578 167.774L110.134 164.543C110.895 164.099 111.366 163.284 111.366 162.404V143.369C111.366 134.172 118.385 123.138 121.76 118.879C122.177 118.424 122.578 117.953 122.968 117.474C122.976 117.474 122.983 117.458 122.987 117.458C123.115 117.327 123.227 117.184 123.323 117.034C128.296 110.775 131.273 102.864 131.273 94.2656C131.273 74.0534 114.825 57.6057 94.6093 57.6057H94.6131ZM106.408 160.975L101.096 164.064C100.47 164.431 100.034 165.052 99.9026 165.767L99.281 169.207H89.9452L89.3236 165.767C89.1962 165.052 88.7599 164.427 88.1306 164.064L82.8179 160.975V145.848H106.408V160.975ZM106.536 140.891H82.6905C82.2194 136.134 80.4743 131.342 78.4009 127.142C83.2928 129.562 88.7947 130.925 94.6093 130.925C100.424 130.925 105.93 129.562 110.821 127.142C108.748 131.346 107.003 136.134 106.532 140.891H106.536ZM119.192 114.261C119.003 114.47 118.763 114.748 118.485 115.092C112.671 121.752 104.13 125.972 94.6131 125.972C85.0959 125.972 76.5515 121.748 70.7331 115.088C70.4589 114.748 70.2234 114.478 70.0342 114.269C65.5825 108.81 62.9108 101.845 62.9108 94.2694C62.9108 76.7908 77.1307 62.5671 94.6131 62.5671C112.096 62.5671 126.315 76.787 126.315 94.2694C126.315 101.845 123.644 108.806 119.192 114.265V114.261Z" fill="#012572"/>
<path d="M94.613 62.5671C77.1344 62.5671 62.9106 76.787 62.9106 94.2695C62.9106 101.845 65.5824 108.81 70.0341 114.269C70.2233 114.478 70.4588 114.752 70.733 115.088C76.5514 121.748 85.0957 125.972 94.613 125.972C104.13 125.972 112.671 121.752 118.485 115.092C118.767 114.748 119.003 114.47 119.192 114.262C123.644 108.802 126.315 101.841 126.315 94.2656C126.315 76.787 112.095 62.5632 94.613 62.5632V62.5671ZM94.613 77.7909C85.5282 77.7909 78.1344 85.1846 78.1344 94.2695C78.1344 95.6363 77.0225 96.7482 75.6557 96.7482C74.2889 96.7482 73.1808 95.6363 73.1808 94.2695C73.1808 82.4511 82.7946 72.8373 94.613 72.8373C95.9798 72.8373 97.0918 73.9454 97.0918 75.3121C97.0918 76.6789 95.9798 77.7909 94.613 77.7909Z" fill="#012572"/>
</svg>
