<svg width="24" height="24" viewBox="0 0 24 24" fill="none" xmlns="http://www.w3.org/2000/svg">
<g clip-path="url(#clip0_1654_3509)">
<g clip-path="url(#clip1_1654_3509)">
<g clip-path="url(#clip2_1654_3509)">
<path d="M19.5832 2.33317H17.4165V1.24984C17.4165 0.962519 17.3024 0.686969 17.0992 0.483805C16.896 0.28064 16.6205 0.166504 16.3332 0.166504C16.0459 0.166504 15.7703 0.28064 15.5671 0.483805C15.364 0.686969 15.2498 0.962519 15.2498 1.24984V2.33317H8.74984V1.24984C8.74984 0.962519 8.6357 0.686969 8.43254 0.483805C8.22937 0.28064 7.95382 0.166504 7.6665 0.166504C7.37919 0.166504 7.10364 0.28064 6.90047 0.483805C6.69731 0.686969 6.58317 0.962519 6.58317 1.24984V2.33317H4.4165C3.55455 2.33317 2.7279 2.67558 2.11841 3.28507C1.50891 3.89457 1.1665 4.72122 1.1665 5.58317V18.5832C1.1665 19.4451 1.50891 20.2718 2.11841 20.8813C2.7279 21.4908 3.55455 21.8332 4.4165 21.8332H19.5832C20.4451 21.8332 21.2718 21.4908 21.8813 20.8813C22.4908 20.2718 22.8332 19.4451 22.8332 18.5832V5.58317C22.8332 4.72122 22.4908 3.89457 21.8813 3.28507C21.2718 2.67558 20.4451 2.33317 19.5832 2.33317ZM20.6665 18.5832C20.6665 18.8705 20.5524 19.146 20.3492 19.3492C20.146 19.5524 19.8705 19.6665 19.5832 19.6665H4.4165C4.12919 19.6665 3.85364 19.5524 3.65047 19.3492C3.44731 19.146 3.33317 18.8705 3.33317 18.5832V10.9998H20.6665V18.5832ZM20.6665 8.83317H3.33317V5.58317C3.33317 5.29585 3.44731 5.0203 3.65047 4.81714C3.85364 4.61397 4.12919 4.49984 4.4165 4.49984H6.58317V5.58317C6.58317 5.87049 6.69731 6.14604 6.90047 6.3492C7.10364 6.55237 7.37919 6.6665 7.6665 6.6665C7.95382 6.6665 8.22937 6.55237 8.43254 6.3492C8.6357 6.14604 8.74984 5.87049 8.74984 5.58317V4.49984H15.2498V5.58317C15.2498 5.87049 15.364 6.14604 15.5671 6.3492C15.7703 6.55237 16.0459 6.6665 16.3332 6.6665C16.6205 6.6665 16.896 6.55237 17.0992 6.3492C17.3024 6.14604 17.4165 5.87049 17.4165 5.58317V4.49984H19.5832C19.8705 4.49984 20.146 4.61397 20.3492 4.81714C20.5524 5.0203 20.6665 5.29585 20.6665 5.58317V8.83317Z" fill="#5E5F79"/>
</g>
</g>
</g>
<defs>
<clipPath id="clip0_1654_3509">
<rect width="24" height="24" fill="white"/>
</clipPath>
<clipPath id="clip1_1654_3509">
<rect width="24" height="24" fill="white"/>
</clipPath>
<clipPath id="clip2_1654_3509">
<rect width="24" height="24" fill="white"/>
</clipPath>
</defs>
</svg>
