<svg width="397" height="1138" viewBox="0 0 397 1138" fill="none" xmlns="http://www.w3.org/2000/svg">
<mask id="mask0_1122_4541" style="mask-type:luminance" maskUnits="userSpaceOnUse" x="-172" y="0" width="569" height="1138">
<path d="M397 0H-172V1138H397V0Z" fill="white"/>
</mask>
<g mask="url(#mask0_1122_4541)">
<g opacity="0.2">
<path d="M-172.334 1137C141.364 1137 395.666 882.698 395.666 569C395.666 255.302 141.364 1 -172.334 1C-486.032 1 -740.334 255.302 -740.334 569C-740.334 882.698 -486.032 1137 -172.334 1137Z" stroke="#515566" stroke-width="2"/>
<path d="M-172.333 1083.45C111.79 1083.45 342.117 853.123 342.117 569C342.117 284.877 111.79 54.55 -172.333 54.55C-456.456 54.55 -686.783 284.877 -686.783 569C-686.783 853.123 -456.456 1083.45 -172.333 1083.45Z" stroke="#515566" stroke-width="2"/>
<path d="M-172.334 1038.35C86.879 1038.35 297.012 828.213 297.012 569C297.012 309.787 86.879 99.6541 -172.334 99.6541C-431.546 99.6541 -641.68 309.787 -641.68 569C-641.68 828.213 -431.546 1038.35 -172.334 1038.35Z" stroke="#515566" stroke-width="2"/>
<path d="M-172.334 989.545C59.9267 989.545 248.211 801.261 248.211 569C248.211 336.739 59.9267 148.455 -172.334 148.455C-404.594 148.455 -592.879 336.739 -592.879 569C-592.879 801.261 -404.594 989.545 -172.334 989.545Z" stroke="#515566" stroke-width="2"/>
<path d="M-172.333 937.502C31.1851 937.502 196.169 772.518 196.169 569C196.169 365.482 31.1851 200.498 -172.333 200.498C-375.851 200.498 -540.835 365.482 -540.835 569C-540.835 772.518 -375.851 937.502 -172.333 937.502Z" stroke="#515566" stroke-width="2"/>
<path d="M-172.331 887.196C3.40228 887.196 145.863 744.736 145.863 569.002C145.863 393.268 3.40228 250.808 -172.331 250.808C-348.065 250.808 -490.525 393.268 -490.525 569.002C-490.525 744.736 -348.065 887.196 -172.331 887.196Z" stroke="#515566" stroke-width="2"/>
<path d="M-172.331 833.418C-26.2987 833.418 92.0839 715.035 92.0839 569.003C92.0839 422.97 -26.2987 304.588 -172.331 304.588C-318.363 304.588 -436.746 422.97 -436.746 569.003C-436.746 715.035 -318.363 833.418 -172.331 833.418Z" stroke="#515566" stroke-width="2"/>
<path d="M-172.33 786.58C-52.1663 786.58 45.2458 689.168 45.2458 569.004C45.2458 448.84 -52.1663 351.428 -172.33 351.428C-292.494 351.428 -389.906 448.84 -389.906 569.004C-389.906 689.168 -292.494 786.58 -172.33 786.58Z" stroke="#515566" stroke-width="2"/>
</g>
</g>
</svg>
