<svg width="89" height="88" viewBox="0 0 89 88" fill="none" xmlns="http://www.w3.org/2000/svg">
<rect x="0.5" width="88" height="88" rx="24" fill="#F4F7FF"/>
<g clip-path="url(#clip0_1122_5645)">
<g clip-path="url(#clip1_1122_5645)">
<mask id="mask0_1122_5645" style="mask-type:luminance" maskUnits="userSpaceOnUse" x="7" y="9" width="75" height="78">
<path d="M81.5 9H7.5V87H81.5V9Z" fill="white"/>
</mask>
<g mask="url(#mask0_1122_5645)">
<g filter="url(#filter0_d_1122_5645)">
<path d="M18.3989 29.4998L44.5 43.9998L70.6011 29.4998L45.9569 15.8091C45.0508 15.3058 43.9491 15.3058 43.0431 15.8091L18.3989 29.4998Z" fill="#356EFF" fill-opacity="0.01"/>
<path d="M18.3989 29.5V56.7348C18.3989 57.8243 18.9896 58.8281 19.942 59.3572L44.4999 73V44L18.3989 29.5Z" fill="#356EFF" fill-opacity="0.01"/>
<path d="M44.5 44V73L69.0579 59.3572C70.0103 58.8281 70.601 57.8243 70.601 56.7348V29.5L44.5 44Z" fill="#356EFF" fill-opacity="0.01"/>
</g>
<path d="M18.3989 29.4998L44.5 43.9998L70.6011 29.4998L45.9569 15.8091C45.0508 15.3058 43.9491 15.3058 43.0431 15.8091L18.3989 29.4998Z" fill="#316BFF"/>
<path d="M18.3989 29.5V56.7348C18.3989 57.8243 18.9896 58.8281 19.942 59.3572L44.4999 73V44L18.3989 29.5Z" fill="#012572"/>
<path d="M44.5 44V73L69.0579 59.3572C70.0103 58.8281 70.601 57.8243 70.601 56.7348V29.5L44.5 44Z" fill="#90BBE4"/>
</g>
</g>
</g>
<defs>
<filter id="filter0_d_1122_5645" x="8.39893" y="9.43164" width="72.2021" height="77.5684" filterUnits="userSpaceOnUse" color-interpolation-filters="sRGB">
<feFlood flood-opacity="0" result="BackgroundImageFix"/>
<feColorMatrix in="SourceAlpha" type="matrix" values="0 0 0 0 0 0 0 0 0 0 0 0 0 0 0 0 0 0 127 0" result="hardAlpha"/>
<feOffset dy="4"/>
<feGaussianBlur stdDeviation="5"/>
<feColorMatrix type="matrix" values="0 0 0 0 0.191667 0 0 0 0 0.418 0 0 0 0 1 0 0 0 0.23 0"/>
<feBlend mode="normal" in2="BackgroundImageFix" result="effect1_dropShadow_1122_5645"/>
<feBlend mode="normal" in="SourceGraphic" in2="effect1_dropShadow_1122_5645" result="shape"/>
</filter>
<clipPath id="clip0_1122_5645">
<rect width="74" height="79" fill="white" transform="translate(7.5 8.5)"/>
</clipPath>
<clipPath id="clip1_1122_5645">
<rect width="74" height="79" fill="white" transform="translate(7.5 8.5)"/>
</clipPath>
</defs>
</svg>
