<svg width="59" height="44" viewBox="0 0 59 44" fill="none" xmlns="http://www.w3.org/2000/svg">
<rect x="0.5" width="58" height="44" rx="22" fill="#3CB7A8"/>
<path d="M39.7441 22.6191L31.8691 30.4941C31.7049 30.6582 31.4822 30.7505 31.25 30.7505C31.0178 30.7505 30.7951 30.6582 30.6309 30.4941C30.4668 30.3299 30.3745 30.1072 30.3745 29.875C30.3745 29.6428 30.4668 29.4201 30.6309 29.2559L37.013 22.875H19.875C19.6429 22.875 19.4204 22.7828 19.2563 22.6187C19.0922 22.4546 19 22.2321 19 22C19 21.7679 19.0922 21.5454 19.2563 21.3813C19.4204 21.2172 19.6429 21.125 19.875 21.125H37.013L30.6309 14.7441C30.4668 14.5799 30.3745 14.3572 30.3745 14.125C30.3745 13.8928 30.4668 13.6701 30.6309 13.5059C30.7951 13.3418 31.0178 13.2495 31.25 13.2495C31.4822 13.2495 31.7049 13.3418 31.8691 13.5059L39.7441 21.3809C39.8254 21.4622 39.89 21.5587 39.934 21.6649C39.978 21.7711 40.0007 21.885 40.0007 22C40.0007 22.115 39.978 22.2288 39.934 22.3351C39.89 22.4413 39.8254 22.5378 39.7441 22.6191Z" fill="white"/>
</svg>
