<svg width="21" height="18" viewBox="0 0 21 18" fill="none" xmlns="http://www.w3.org/2000/svg">
<path d="M20.7441 9.61906L12.8691 17.4941C12.7049 17.6582 12.4822 17.7505 12.25 17.7505C12.0178 17.7505 11.7951 17.6582 11.6309 17.4941C11.4668 17.3299 11.3745 17.1072 11.3745 16.875C11.3745 16.6428 11.4668 16.4201 11.6309 16.2559L18.013 9.875H0.875C0.642936 9.875 0.420376 9.78281 0.256282 9.61872C0.0921874 9.45462 0 9.23206 0 9C0 8.76793 0.0921874 8.54537 0.256282 8.38128C0.420376 8.21719 0.642936 8.125 0.875 8.125H18.013L11.6309 1.74406C11.4668 1.57988 11.3745 1.35719 11.3745 1.125C11.3745 0.892805 11.4668 0.670121 11.6309 0.505936C11.7951 0.34175 12.0178 0.249512 12.25 0.249512C12.4822 0.249512 12.7049 0.34175 12.8691 0.505936L20.7441 8.38094C20.8254 8.4622 20.89 8.5587 20.934 8.66493C20.978 8.77115 21.0007 8.88501 21.0007 9C21.0007 9.11499 20.978 9.22885 20.934 9.33507C20.89 9.44129 20.8254 9.5378 20.7441 9.61906Z" fill="white"/>
</svg>
