<svg width="157" height="158" viewBox="0 0 157 158" fill="none" xmlns="http://www.w3.org/2000/svg">
<path d="M156.52 27.8005C156.236 26.828 155.455 26.0784 154.471 25.8324L135.452 21.0391L130.766 2.63444C130.512 1.64272 129.751 0.862403 128.763 0.585642C127.779 0.308881 126.718 0.585642 125.988 1.30061L100.211 26.6704C99.4841 27.3815 99.192 28.4271 99.4457 29.4149L104.312 48.4807L94.5947 58.3173C84.1777 49.0035 70.824 43.8949 56.786 43.8949C25.4736 43.8949 0 69.3646 0 100.677C0 131.99 25.4736 157.459 56.786 157.459C88.0985 157.459 113.568 131.99 113.568 100.677C113.568 89.6951 110.428 79.0359 104.485 69.8567C103.628 68.5305 101.856 68.1538 100.53 69.011C99.2035 69.8682 98.8268 71.6402 99.684 72.9664C105.027 81.2154 107.848 90.7983 107.848 100.677C107.848 128.834 84.9426 151.743 56.786 151.743C28.6294 151.743 5.71973 128.834 5.71973 100.677C5.71973 72.5205 28.6294 49.6108 56.786 49.6108C69.3133 49.6108 81.2333 54.1389 90.574 62.3918L80.1454 72.951C73.6108 67.435 65.4156 64.4137 56.786 64.4137C36.79 64.4137 20.5226 80.6811 20.5226 100.677C20.5226 120.673 36.79 136.941 56.786 136.941C76.782 136.941 93.0494 120.673 93.0494 100.677C93.0494 95.3341 91.9116 90.1832 89.6706 85.3745C89.0056 83.9446 87.3028 83.3257 85.8728 83.9907C84.4391 84.6595 83.8202 86.3586 84.489 87.7923C86.3726 91.84 87.3297 96.1759 87.3297 100.677C87.3297 117.521 73.6262 131.221 56.786 131.221C39.9459 131.221 26.2423 117.521 26.2423 100.677C26.2423 83.8331 39.942 70.1334 56.786 70.1334C63.9011 70.1334 70.6702 72.5705 76.1132 77.0332L62.2405 91.0827C60.6338 90.164 58.7695 89.6374 56.786 89.6374C50.6896 89.6374 45.7463 94.5807 45.7463 100.677C45.7463 106.774 50.6896 111.717 56.786 111.717C62.8825 111.717 67.8257 106.774 67.8257 100.677C67.8257 98.6437 67.2722 96.7371 66.3112 95.0996L108.383 52.4976L128.667 57.3717C129.666 57.61 130.716 57.2948 131.419 56.5491L155.859 30.5643C156.551 29.8262 156.804 28.773 156.52 27.8005ZM105.392 29.5918L126.453 8.86926L129.928 22.5382L109.002 43.7296L105.392 29.5918ZM128.39 51.4213L113.076 47.7427L133.987 26.5704L148.359 30.1876L128.39 51.4213Z" fill="#012572"/>
<path d="M129.928 22.5383L109.002 43.7298L105.392 29.5919L126.453 8.86938L129.928 22.5383Z" fill="#3CB7A8"/>
<path d="M148.359 30.1877L128.39 51.4214L113.076 47.7428L133.987 26.5706L148.359 30.1877Z" fill="#3CB7A8"/>
<path d="M62.9985 102.25C63.8446 98.6648 61.6244 95.0729 58.0396 94.2268C54.4549 93.3807 50.8629 95.6009 50.0168 99.1857C49.1708 102.77 51.3909 106.362 54.9757 107.208C58.5605 108.055 62.1524 105.834 62.9985 102.25Z" fill="#3CB7A8"/>
</svg>
