<svg width="188" height="189" viewBox="0 0 188 189" fill="none" xmlns="http://www.w3.org/2000/svg">
<mask id="mask0_865_2702" style="mask-type:alpha" maskUnits="userSpaceOnUse" x="0" y="0" width="188" height="189">
<rect y="0.47998" width="188" height="188" fill="#D9D9D9"/>
</mask>
<g mask="url(#mask0_865_2702)">
<path d="M141.637 65.3866C141.483 64.9183 141.051 64.6035 140.559 64.6035H122.144L116.454 47.0905C116.3 46.6222 115.867 46.3074 115.375 46.3074C114.883 46.3074 114.451 46.6222 114.297 47.0905L108.606 64.6035H90.1922C89.7003 64.6035 89.2674 64.9222 89.1139 65.3866C88.9643 65.8549 89.1296 66.3665 89.5271 66.6538L104.427 77.4804L98.7361 94.9933C98.5826 95.4616 98.7519 95.9732 99.1494 96.2605C99.5469 96.5478 100.086 96.5478 100.483 96.2605L115.383 85.434L130.283 96.2605C130.48 96.4061 130.716 96.477 130.948 96.477C131.18 96.477 131.416 96.4022 131.617 96.2605C132.015 95.9732 132.18 95.4616 132.03 94.9933L126.34 77.4804L141.239 66.6538C141.637 66.3665 141.802 65.8549 141.653 65.3866H141.637ZM124.325 76.1305C123.927 76.4178 123.762 76.9294 123.911 77.3977L128.78 92.3762L116.037 83.1199C115.639 82.8287 115.1 82.8287 114.702 83.1199L101.959 92.3762L106.828 77.3977C106.977 76.9294 106.812 76.4178 106.414 76.1305L93.6751 66.8742H109.425C109.917 66.8742 110.35 66.5594 110.503 66.0911L115.368 51.1126L120.236 66.0911C120.389 66.5594 120.822 66.8742 121.314 66.8742H137.064L124.321 76.1305H124.325Z" fill="#102871"/>
<path d="M123.916 77.3977L128.784 92.3761L116.041 83.1199C115.643 82.8286 115.104 82.8286 114.707 83.1199L101.963 92.3761L106.832 77.3977C106.981 76.9293 106.816 76.4177 106.418 76.1304L93.6792 66.8742H109.429C109.921 66.8742 110.354 66.5593 110.507 66.091L115.372 51.1125L120.24 66.091C120.393 66.5593 120.826 66.8742 121.318 66.8742H137.068L124.325 76.1304C123.927 76.4177 123.762 76.9293 123.912 77.3977H123.916Z" fill="#012572"/>
<path d="M115.376 41.7934C114.75 41.7934 114.242 41.2857 114.242 40.6599V31.7657C114.242 31.14 114.75 30.6323 115.376 30.6323C116.001 30.6323 116.509 31.14 116.509 31.7657V40.6599C116.509 41.2857 116.001 41.7934 115.376 41.7934Z" fill="#3CB7A8"/>
<path d="M145.356 62.0965C144.904 62.0965 144.479 61.8249 144.301 61.3802C144.073 60.7978 144.357 60.1405 144.939 59.9083L153.211 56.6458C153.794 56.4176 154.451 56.7009 154.683 57.2834C154.911 57.8658 154.628 58.523 154.046 58.7552L145.773 62.0178C145.636 62.0728 145.494 62.0965 145.356 62.0965Z" fill="#3CB7A8"/>
<path d="M157.379 57.3504C156.927 57.3504 156.502 57.0788 156.324 56.6341C156.096 56.0517 156.379 55.3945 156.962 55.1623L158.658 54.4932C159.241 54.265 159.898 54.5483 160.13 55.1308C160.358 55.7132 160.075 56.3705 159.492 56.6026L157.796 57.2717C157.659 57.3268 157.517 57.3504 157.379 57.3504Z" fill="#3CB7A8"/>
<path d="M76.9412 89.0901C76.4886 89.0901 76.0636 88.8186 75.8865 88.37C75.6583 87.7875 75.9417 87.1303 76.5241 86.8981L84.7965 83.6356C85.379 83.4073 86.0362 83.6907 86.2684 84.2731C86.4967 84.8556 86.2133 85.5128 85.6308 85.745L77.3584 89.0075C77.2207 89.0626 77.0829 89.0862 76.9412 89.0862V89.0901Z" fill="#3CB7A8"/>
<path d="M71.4948 91.2391C71.0422 91.2391 70.6172 90.9675 70.4401 90.5189C70.2119 89.9364 70.4952 89.2792 71.0776 89.047L72.7738 88.378C73.3563 88.1497 74.0135 88.4331 74.2457 89.0155C74.474 89.598 74.1906 90.2552 73.6081 90.4874L71.912 91.1564C71.7743 91.2115 71.6365 91.2352 71.4948 91.2352V91.2391Z" fill="#3CB7A8"/>
<path d="M153.278 89.952C153.133 89.952 152.983 89.9244 152.838 89.8615L144.64 86.4101C144.061 86.1661 143.79 85.501 144.034 84.9264C144.278 84.3479 144.943 84.0763 145.518 84.3203L153.715 87.7717C154.294 88.0157 154.565 88.6808 154.321 89.2554C154.14 89.6883 153.719 89.9481 153.274 89.9481L153.278 89.952Z" fill="#3CB7A8"/>
<path d="M158.674 92.2226C158.528 92.2226 158.379 92.1951 158.233 92.1321L156.553 91.4237C155.974 91.1797 155.703 90.5146 155.947 89.94C156.191 89.3615 156.856 89.09 157.43 89.334L159.111 90.0424C159.689 90.2864 159.961 90.9515 159.717 91.526C159.536 91.959 159.115 92.2187 158.67 92.2187L158.674 92.2226Z" fill="#3CB7A8"/>
<path d="M85.4897 61.4198C85.3441 61.4198 85.1945 61.3922 85.0489 61.3292L76.8512 57.8778C76.2727 57.6338 76.0012 56.9687 76.2452 56.3941C76.4892 55.8156 77.1543 55.5441 77.7288 55.7881L85.9265 59.2395C86.505 59.4835 86.7766 60.1486 86.5326 60.7232C86.3515 61.1561 85.9305 61.4158 85.4858 61.4158L85.4897 61.4198Z" fill="#3CB7A8"/>
<path d="M73.5768 56.406C73.4312 56.406 73.2816 56.3784 73.136 56.3155L71.4556 55.6071C70.877 55.3631 70.6055 54.698 70.8495 54.1234C71.0935 53.5449 71.7586 53.2733 72.3332 53.5173L74.0136 54.2257C74.5921 54.4697 74.8637 55.1348 74.6197 55.7094C74.4387 56.1423 74.0176 56.402 73.5729 56.402L73.5768 56.406Z" fill="#3CB7A8"/>
<path d="M127.824 44.1667C127.678 44.1667 127.529 44.1391 127.383 44.0762C126.804 43.8322 126.533 43.1671 126.777 42.5925L130.228 34.3949C130.472 33.8164 131.137 33.5448 131.712 33.7888C132.29 34.0328 132.562 34.6979 132.318 35.2725L128.867 43.4701C128.686 43.903 128.264 44.1628 127.82 44.1628L127.824 44.1667Z" fill="#3CB7A8"/>
<path d="M132.841 32.2499C132.696 32.2499 132.546 32.2223 132.401 32.1594C131.822 31.9154 131.551 31.2503 131.795 30.6757L132.503 28.9952C132.747 28.4167 133.412 28.1452 133.987 28.3892C134.565 28.6332 134.837 29.2983 134.593 29.8728L133.884 31.5533C133.703 31.9862 133.282 32.2459 132.837 32.2459L132.841 32.2499Z" fill="#3CB7A8"/>
<path d="M103.085 44.0249C102.637 44.0249 102.215 43.7573 102.034 43.3165L98.6774 35.0795C98.4413 34.501 98.7207 33.8359 99.2992 33.5998C99.8777 33.3637 100.543 33.6431 100.779 34.2216L104.136 42.4586C104.372 43.0371 104.093 43.7022 103.514 43.9383C103.372 43.9973 103.231 44.021 103.085 44.021V44.0249Z" fill="#3CB7A8"/>
<path d="M98.2051 32.0531C97.7564 32.0531 97.3354 31.7855 97.1543 31.3487L96.4656 29.6603C96.2295 29.0818 96.509 28.4167 97.0875 28.1806C97.666 27.9445 98.3311 28.2239 98.5672 28.8024L99.2559 30.4907C99.4921 31.0692 99.2126 31.7343 98.6341 31.9705C98.4924 32.0295 98.3507 32.0531 98.2051 32.0531Z" fill="#3CB7A8"/>
<path d="M138.178 51.1559C137.887 51.1559 137.595 51.0457 137.375 50.8253C136.93 50.3806 136.93 49.6643 137.375 49.2196L143.664 42.9307C144.109 42.486 144.825 42.486 145.27 42.9307C145.714 43.3754 145.714 44.0917 145.27 44.5364L138.981 50.8253C138.76 51.0457 138.469 51.1559 138.178 51.1559Z" fill="#3CB7A8"/>
<path d="M154.876 74.2847H147.174C146.549 74.2847 146.041 73.777 146.041 73.1512C146.041 72.5255 146.549 72.0178 147.174 72.0178H154.876C155.502 72.0178 156.01 72.5255 156.01 73.1512C156.01 73.777 155.502 74.2847 154.876 74.2847Z" fill="#3CB7A8"/>
<path d="M82.8056 74.2847H74.8756C74.2498 74.2847 73.7422 73.777 73.7422 73.1512C73.7422 72.5255 74.2498 72.0178 74.8756 72.0178H82.8056C83.4314 72.0178 83.939 72.5255 83.939 73.1512C83.939 73.777 83.4314 74.2847 82.8056 74.2847Z" fill="#3CB7A8"/>
<path d="M91.9674 51.1087C91.6801 51.1087 91.3928 50.9985 91.1685 50.782L84.7773 44.4695C84.3326 44.0287 84.3286 43.3125 84.7694 42.8638C85.2102 42.4191 85.9265 42.4152 86.3751 42.856L92.7664 49.1685C93.2111 49.6093 93.215 50.3255 92.7742 50.7742C92.5538 50.9985 92.2587 51.1126 91.9674 51.1126V51.1087Z" fill="#3CB7A8"/>
<path d="M170.819 107.461C170.618 107.217 165.868 101.566 157.517 101.566C157.45 101.566 157.387 101.566 157.32 101.57C149.233 101.652 140.878 106.926 132.468 117.241C118.87 115.95 109.201 110.354 100.551 105.344C93.4196 101.215 87.2646 97.6499 80.5349 97.6499C71.6328 97.6499 64.1553 101.011 58.1498 103.714C53.8601 105.639 50.1568 107.308 47.1265 107.308H18.1613C16.7485 107.308 15.6033 108.453 15.6033 109.866V146.151C15.6033 147.564 16.7485 148.709 18.1613 148.709H47.1265C48.5393 148.709 49.6845 147.564 49.6845 146.151V141.629C60.5858 142.353 72.4553 147.477 83.0143 152.038C93.0655 156.379 102.558 160.48 110.244 160.48C126.852 160.48 156.411 136.119 171.067 110.354C171.594 109.429 171.496 108.28 170.819 107.461ZM44.5684 143.593H20.7194V112.424H44.5684V143.593ZM146.734 132.904C144.463 134.785 141.46 135.757 138.288 135.647C118.39 134.95 102.975 129.488 102.825 129.433C101.495 128.953 100.027 129.641 99.5512 130.972C99.0711 132.302 99.7597 133.766 101.09 134.246C101.743 134.482 117.367 140.031 138.111 140.759C138.261 140.763 138.414 140.763 138.564 140.767C138.548 140.779 138.532 140.795 138.516 140.806C127.592 149.921 117.021 155.364 110.244 155.364C103.467 155.364 94.5924 151.468 85.0449 147.339C73.9901 142.566 61.5658 137.202 49.6845 136.501V112.195C52.9982 111.637 56.4143 110.102 60.2474 108.378C66.0995 105.749 72.7308 102.766 80.5349 102.766C85.8911 102.766 91.4952 106.013 97.9849 109.771C107.879 115.501 120.197 122.632 138.359 122.632C142.554 122.632 147.698 125.497 148.745 128.414C148.942 128.953 149.532 130.594 146.734 132.904ZM153.381 126.222C151.248 121.184 144.459 117.768 138.969 117.532C145.368 110.515 151.641 106.784 157.285 106.686C161.252 106.623 164.105 108.327 165.62 109.539C162.271 115.139 158.092 120.818 153.381 126.222Z" fill="#213271"/>
<path d="M44.5685 112.424H20.7195V143.593H44.5685V112.424Z" fill="#012572"/>
</g>
</svg>
