<svg width="20" height="20" viewBox="0 0 20 20" fill="none" xmlns="http://www.w3.org/2000/svg">
<g clip-path="url(#clip0_1653_3373)">
<path d="M1.6665 10.0003C1.6665 14.6028 5.39734 18.3337 9.99984 18.3337C14.6023 18.3337 18.3332 14.6028 18.3332 10.0003C18.3332 5.39783 14.6023 1.66699 9.99984 1.66699C5.39734 1.66699 1.6665 5.39783 1.6665 10.0003Z" stroke="white" stroke-width="1.5" stroke-linecap="round" stroke-linejoin="round"/>
<path d="M10.8331 1.70898C10.8331 1.70898 13.3331 5.00065 13.3331 10.0007C13.3331 15.0007 10.8331 18.2923 10.8331 18.2923M9.16641 18.2923C9.16641 18.2923 6.66641 15.0007 6.66641 10.0007C6.66641 5.00065 9.16641 1.70898 9.16641 1.70898M2.19141 12.9173H17.8081M2.19141 7.08398H17.8081" stroke="white" stroke-width="1.5" stroke-linecap="round" stroke-linejoin="round"/>
</g>
<defs>
<clipPath id="clip0_1653_3373">
<rect width="20" height="20" fill="white"/>
</clipPath>
</defs>
</svg>
