<svg width="89" height="88" viewBox="0 0 89 88" fill="none" xmlns="http://www.w3.org/2000/svg">
<rect x="0.5" width="88" height="88" rx="24" fill="#F4F7FF"/>
<g clip-path="url(#clip0_1122_4007)">
<g clip-path="url(#clip1_1122_4007)">
<mask id="mask0_1122_4007" style="mask-type:luminance" maskUnits="userSpaceOnUse" x="7" y="9" width="75" height="78">
<path d="M81.5 9H7.5V87H81.5V9Z" fill="white"/>
</mask>
<g mask="url(#mask0_1122_4007)">
<g filter="url(#filter0_d_1122_4007)">
<path d="M18.399 29.4998L44.5001 43.9998L70.6012 29.4998L45.957 15.8091C45.0509 15.3058 43.9492 15.3058 43.0432 15.8091L18.399 29.4998Z" fill="#356EFF" fill-opacity="0.01"/>
<path d="M18.3988 29.5V56.7348C18.3988 57.8243 18.9895 58.8281 19.9419 59.3572L44.4998 73V44L18.3988 29.5Z" fill="#356EFF" fill-opacity="0.01"/>
<path d="M44.5 44V73L69.0579 59.3572C70.0103 58.8281 70.601 57.8243 70.601 56.7348V29.5L44.5 44Z" fill="#356EFF" fill-opacity="0.01"/>
</g>
<path d="M18.399 29.4998L44.5001 43.9998L70.6012 29.4998L45.957 15.8091C45.0509 15.3058 43.9492 15.3058 43.0432 15.8091L18.399 29.4998Z" fill="#8EAEFF"/>
<path d="M18.3988 29.5V56.7348C18.3988 57.8243 18.9895 58.8281 19.9419 59.3572L44.4998 73V44L18.3988 29.5Z" fill="#B9CDFF"/>
<path d="M44.5 44V73L69.0579 59.3572C70.0103 58.8281 70.601 57.8243 70.601 56.7348V29.5L44.5 44Z" fill="#356EFF"/>
</g>
</g>
<rect width="88" height="88" rx="24" fill="#F4F7FF"/>
<g clip-path="url(#clip2_1122_4007)">
<g clip-path="url(#clip3_1122_4007)">
<mask id="mask1_1122_4007" style="mask-type:luminance" maskUnits="userSpaceOnUse" x="7" y="9" width="74" height="78">
<path d="M81 9H7V87H81V9Z" fill="white"/>
</mask>
<g mask="url(#mask1_1122_4007)">
<g filter="url(#filter1_d_1122_4007)">
<path d="M17.899 29.4998L44.0001 43.9998L70.1012 29.4998L45.457 15.8091C44.5509 15.3058 43.4492 15.3058 42.5432 15.8091L17.899 29.4998Z" fill="#356EFF" fill-opacity="0.01"/>
<path d="M17.8988 29.5V56.7348C17.8988 57.8243 18.4895 58.8281 19.4419 59.3572L43.9998 73V44L17.8988 29.5Z" fill="#356EFF" fill-opacity="0.01"/>
<path d="M44 44V73L68.5579 59.3572C69.5103 58.8281 70.101 57.8243 70.101 56.7348V29.5L44 44Z" fill="#356EFF" fill-opacity="0.01"/>
</g>
<path d="M17.899 29.4998L44.0001 43.9998L70.1012 29.4998L45.457 15.8091C44.5509 15.3058 43.4492 15.3058 42.5432 15.8091L17.899 29.4998Z" fill="#316BFF"/>
<path d="M17.8988 29.5V56.7348C17.8988 57.8243 18.4895 58.8281 19.4419 59.3572L43.9998 73V44L17.8988 29.5Z" fill="#012572"/>
<path d="M44 44V73L68.5579 59.3572C69.5103 58.8281 70.101 57.8243 70.101 56.7348V29.5L44 44Z" fill="#90BBE4"/>
</g>
</g>
</g>
</g>
<defs>
<filter id="filter0_d_1122_4007" x="8.3988" y="9.43164" width="72.2024" height="77.5684" filterUnits="userSpaceOnUse" color-interpolation-filters="sRGB">
<feFlood flood-opacity="0" result="BackgroundImageFix"/>
<feColorMatrix in="SourceAlpha" type="matrix" values="0 0 0 0 0 0 0 0 0 0 0 0 0 0 0 0 0 0 127 0" result="hardAlpha"/>
<feOffset dy="4"/>
<feGaussianBlur stdDeviation="5"/>
<feColorMatrix type="matrix" values="0 0 0 0 0.191667 0 0 0 0 0.418 0 0 0 0 1 0 0 0 0.23 0"/>
<feBlend mode="normal" in2="BackgroundImageFix" result="effect1_dropShadow_1122_4007"/>
<feBlend mode="normal" in="SourceGraphic" in2="effect1_dropShadow_1122_4007" result="shape"/>
</filter>
<filter id="filter1_d_1122_4007" x="7.8988" y="9.43164" width="72.2024" height="77.5684" filterUnits="userSpaceOnUse" color-interpolation-filters="sRGB">
<feFlood flood-opacity="0" result="BackgroundImageFix"/>
<feColorMatrix in="SourceAlpha" type="matrix" values="0 0 0 0 0 0 0 0 0 0 0 0 0 0 0 0 0 0 127 0" result="hardAlpha"/>
<feOffset dy="4"/>
<feGaussianBlur stdDeviation="5"/>
<feColorMatrix type="matrix" values="0 0 0 0 0.191667 0 0 0 0 0.418 0 0 0 0 1 0 0 0 0.23 0"/>
<feBlend mode="normal" in2="BackgroundImageFix" result="effect1_dropShadow_1122_4007"/>
<feBlend mode="normal" in="SourceGraphic" in2="effect1_dropShadow_1122_4007" result="shape"/>
</filter>
<clipPath id="clip0_1122_4007">
<rect width="74" height="79" fill="white" transform="translate(7.5 8.5)"/>
</clipPath>
<clipPath id="clip1_1122_4007">
<rect width="74" height="79" fill="white" transform="translate(7.5 8.5)"/>
</clipPath>
<clipPath id="clip2_1122_4007">
<rect width="74" height="79" fill="white" transform="translate(7 8.5)"/>
</clipPath>
<clipPath id="clip3_1122_4007">
<rect width="74" height="79" fill="white" transform="translate(7 8.5)"/>
</clipPath>
</defs>
</svg>
