<svg width="188" height="189" viewBox="0 0 188 189" fill="none" xmlns="http://www.w3.org/2000/svg">
<mask id="mask0_865_2687" style="mask-type:alpha" maskUnits="userSpaceOnUse" x="0" y="0" width="188" height="189">
<rect y="0.47998" width="188" height="188" fill="#D9D9D9"/>
</mask>
<g mask="url(#mask0_865_2687)">
<path d="M172.52 43.8005C172.236 42.828 171.455 42.0784 170.471 41.8324L151.452 37.0391L146.766 18.6344C146.512 17.6427 145.751 16.8624 144.763 16.5856C143.779 16.3089 142.718 16.5856 141.988 17.3006L116.211 42.6704C115.484 43.3815 115.192 44.4271 115.446 45.4149L120.312 64.4807L110.595 74.3173C100.178 65.0035 86.824 59.8949 72.786 59.8949C41.4736 59.8949 16 85.3646 16 116.677C16 147.99 41.4736 173.459 72.786 173.459C104.098 173.459 129.568 147.99 129.568 116.677C129.568 105.695 126.428 95.0359 120.485 85.8567C119.628 84.5305 117.856 84.1538 116.53 85.011C115.204 85.8682 114.827 87.6402 115.684 88.9664C121.027 97.2154 123.848 106.798 123.848 116.677C123.848 144.834 100.943 167.743 72.786 167.743C44.6294 167.743 21.7197 144.834 21.7197 116.677C21.7197 88.5205 44.6294 65.6108 72.786 65.6108C85.3133 65.6108 97.2333 70.1389 106.574 78.3918L96.1454 88.951C89.6108 83.435 81.4156 80.4137 72.786 80.4137C52.79 80.4137 36.5226 96.6811 36.5226 116.677C36.5226 136.673 52.79 152.941 72.786 152.941C92.782 152.941 109.049 136.673 109.049 116.677C109.049 111.334 107.912 106.183 105.671 101.375C105.006 99.9446 103.303 99.3257 101.873 99.9907C100.439 100.66 99.8202 102.359 100.489 103.792C102.373 107.84 103.33 112.176 103.33 116.677C103.33 133.521 89.6262 147.221 72.786 147.221C55.9459 147.221 42.2423 133.521 42.2423 116.677C42.2423 99.8331 55.942 86.1334 72.786 86.1334C79.9011 86.1334 86.6702 88.5705 92.1132 93.0332L78.2405 107.083C76.6338 106.164 74.7695 105.637 72.786 105.637C66.6896 105.637 61.7463 110.581 61.7463 116.677C61.7463 122.774 66.6896 127.717 72.786 127.717C78.8825 127.717 83.8257 122.774 83.8257 116.677C83.8257 114.644 83.2722 112.737 82.3112 111.1L124.383 68.4976L144.667 73.3717C145.666 73.61 146.716 73.2948 147.419 72.5491L171.859 46.5643C172.551 45.8262 172.804 44.773 172.52 43.8005ZM121.392 45.5918L142.453 24.8693L145.928 38.5382L125.002 59.7296L121.392 45.5918ZM144.39 67.4213L129.076 63.7427L149.987 42.5704L164.359 46.1876L144.39 67.4213Z" fill="#012572"/>
<path d="M145.928 38.5383L125.002 59.7298L121.392 45.5919L142.453 24.8694L145.928 38.5383Z" fill="#3CB7A8"/>
<path d="M164.359 46.1877L144.39 67.4214L129.076 63.7428L149.987 42.5706L164.359 46.1877Z" fill="#3CB7A8"/>
<path d="M78.9988 118.25C79.8448 114.665 77.6247 111.073 74.0399 110.227C70.4551 109.381 66.8632 111.601 66.0171 115.186C65.171 118.77 67.3912 122.362 70.9759 123.208C74.5607 124.055 78.1527 121.834 78.9988 118.25Z" fill="#3CB7A8"/>
</g>
</svg>
