<svg width="24" height="25" viewBox="0 0 24 25" fill="none" xmlns="http://www.w3.org/2000/svg">
<path fill-rule="evenodd" clip-rule="evenodd" d="M12.4 17H13.75C17.202 17 20 14.202 20 10.75C20 7.298 17.202 4.5 13.75 4.5H10.25C6.798 4.5 4 7.298 4 10.75C4 14.78 6.298 17.19 8.715 18.643C9.928 19.372 11.15 19.843 12.073 20.1315C12.187 20.167 12.2965 20.2 12.4 20.23V17ZM13.4 21.5C13.4 21.5 13.018 21.4355 12.4 21.2685C9.795 20.5625 3 18.025 3 10.75C3 6.746 6.246 3.5 10.25 3.5H13.75C17.754 3.5 21 6.746 21 10.75C21 14.754 17.754 18 13.75 18H13.4V21.5Z" fill="white"/>
<path fill-rule="evenodd" clip-rule="evenodd" d="M13.8456 6.74105C14.3606 7.08305 14.7486 7.63755 14.7486 8.38105C14.7486 9.17005 14.4306 9.75004 13.9151 10.105C13.7115 10.2428 13.4869 10.3465 13.2501 10.412V11.178C13.2501 11.377 13.171 11.5677 13.0304 11.7084C12.8897 11.849 12.699 11.928 12.5001 11.928C12.3011 11.928 12.1104 11.849 11.9697 11.7084C11.8291 11.5677 11.7501 11.377 11.7501 11.178V9.77955C11.75 9.58926 11.8223 9.40607 11.9523 9.26709C12.0823 9.12811 12.2602 9.04373 12.4501 9.03105C12.7271 9.01255 12.9371 8.95755 13.0636 8.87005C13.1148 8.83608 13.1562 8.78916 13.1836 8.73405C13.2136 8.67405 13.2486 8.56705 13.2486 8.38055C13.2486 8.22405 13.1876 8.10455 13.0151 7.98955C12.8191 7.85955 12.5041 7.76355 12.1256 7.75155C11.7516 7.73955 11.3881 7.81255 11.1206 7.94205C10.8526 8.07205 10.7541 8.21805 10.7266 8.32555C10.7021 8.42095 10.659 8.5106 10.5999 8.58937C10.5407 8.66814 10.4667 8.73449 10.3819 8.78463C10.2971 8.83478 10.2033 8.86773 10.1058 8.88161C10.0083 8.8955 9.90896 8.89004 9.81356 8.86555C9.71815 8.84105 9.6285 8.79801 9.54973 8.73887C9.47096 8.67974 9.40461 8.60566 9.35447 8.52088C9.30432 8.4361 9.27137 8.34228 9.25749 8.24476C9.2436 8.14725 9.24907 8.04795 9.27356 7.95255C9.44606 7.28205 9.94756 6.84405 10.4666 6.59255C10.9866 6.34005 11.5981 6.23355 12.1731 6.25205C12.7446 6.27005 13.3546 6.41405 13.8456 6.74105Z" fill="white"/>
<path d="M13.5 14C13.5 14.2652 13.3946 14.5196 13.2071 14.7071C13.0196 14.8946 12.7652 15 12.5 15C12.2348 15 11.9804 14.8946 11.7929 14.7071C11.6054 14.5196 11.5 14.2652 11.5 14C11.5 13.7348 11.6054 13.4804 11.7929 13.2929C11.9804 13.1054 12.2348 13 12.5 13C12.7652 13 13.0196 13.1054 13.2071 13.2929C13.3946 13.4804 13.5 13.7348 13.5 14Z" fill="white"/>
</svg>
