<svg width="96" height="94" viewBox="0 0 96 94" fill="none" xmlns="http://www.w3.org/2000/svg">
<g clip-path="url(#clip0_1125_6376)">
<path d="M89.9528 46.6213C89.9528 42.6062 95.4187 37.8818 94.4297 34.1611C93.4007 30.3133 86.2844 28.9817 84.34 25.609C82.3955 22.2363 84.7475 15.3638 81.9745 12.5867C79.2015 9.80959 72.3926 12.2053 68.9714 10.2245C65.5502 8.24371 64.294 1.15038 60.4385 0.119835C56.7233 -0.870554 52.0259 4.60336 47.9967 4.60336C43.9674 4.60336 39.27 -0.870554 35.5548 0.119835C31.7127 1.15038 30.383 8.27716 27.0152 10.2245C23.6475 12.1718 16.7851 9.81628 14.0121 12.5934C11.2391 15.3705 13.6312 22.1895 11.6534 25.6157C9.6755 29.0419 2.5926 30.2999 1.56358 34.1611C0.554599 37.8818 6.0405 42.6062 6.0405 46.6213C6.0405 50.6364 0.574645 55.3608 1.56358 59.0815C2.5926 62.9293 9.70891 64.2609 11.6534 67.6336C13.5978 71.0063 11.2458 77.8788 14.0188 80.6559C16.7918 83.433 23.6007 81.0373 27.0219 83.0181C30.4431 84.9989 31.6993 92.0922 35.5548 93.1228C39.27 94.1132 43.9674 88.6392 47.9967 88.6392C52.0259 88.6392 56.7233 94.1132 60.4385 93.1228C64.2806 92.0922 65.6104 84.9654 68.9781 83.0181C72.3458 81.0708 79.2082 83.4263 81.9812 80.6492C84.7542 77.8721 82.3621 71.0531 84.34 67.6269C86.3178 64.2007 93.4007 62.9426 94.4297 59.0815C95.4387 55.3608 89.9528 50.6364 89.9528 46.6213Z" fill="#3CB7A8"/>
<path d="M84.2932 67.6007C86.2042 63.9269 91.4095 62.97 93.3539 59.4702C94.2761 57.128 92.2113 54.7457 91.0353 52.6713C89.3047 50.0749 87.7945 46.8293 89.2312 43.6641C90.2201 41.0208 92.1178 38.759 92.8929 36.2496C93.0332 35.7677 93.1268 35.2592 93.0399 34.7907C92.7058 33.1579 91.1623 32.3081 89.6454 31.3043C84.8478 28.4268 81.9879 26.9412 82.5759 20.6911C82.6294 17.9675 83.4579 15.0699 81.8943 12.6609L82.0414 12.5137C84.2932 14.5011 84.0794 17.9742 84.3466 20.6777C84.5671 22.6384 84.5738 24.4653 85.9971 25.7501C88.7233 28.1458 92.3116 28.7614 94.8039 31.7794C98.1917 36.0287 93.394 40.8736 91.7703 44.6812C90.5609 47.0836 91.8973 49.2317 93.0599 51.4801C95.8062 56.2313 97.2362 60.2197 91.4162 63.2644C88.9973 64.6831 86.1641 65.4125 84.38 67.6543L84.2865 67.6007H84.2932Z" fill="black"/>
<path d="M11.7002 25.6824C9.78912 29.3563 4.58385 30.3132 2.6394 33.813C1.71729 36.1551 3.78202 38.5374 4.95805 40.6119C6.68868 43.2083 8.19881 46.4539 6.76218 49.6191C5.77325 52.2624 3.87556 54.5242 3.10045 57.0336C2.96013 57.5154 2.86659 58.024 2.95345 58.4924C3.28755 60.1252 4.83109 60.9751 6.3479 61.9789C11.1456 64.8564 14.0054 66.3419 13.4174 72.5921C13.364 75.3157 12.5354 78.2132 14.099 80.6223L13.952 80.7695C11.7002 78.782 11.914 75.309 11.6467 72.6055C11.4262 70.6448 11.4195 68.8179 9.99626 67.5331C7.27001 65.1374 3.68179 64.5218 1.18941 61.5038C-2.19836 57.2544 2.59931 52.4096 4.22303 48.6019C5.43247 46.1996 4.09607 44.0515 2.93341 41.803C0.187111 37.0518 -1.24283 33.0635 4.57717 30.0187C6.99605 28.6001 9.82921 27.8707 11.6133 25.6289L11.7068 25.6824H11.7002Z" fill="black"/>
<path d="M35.6484 92.7751C35.5949 93.0963 35.5682 93.0629 35.6751 93.0763C37.8935 93.4577 39.8781 92.039 41.7089 90.9483C47.0411 87.3414 48.9789 87.3213 54.5316 90.5334C56.269 91.4435 58.3136 92.7684 60.2381 92.3535C63.1848 91.2494 64.2539 87.4418 66.0915 85.0461C68.3299 81.3723 71.8046 81.5463 75.5866 81.7537C77.7649 81.8273 80.1771 82.0214 81.9946 80.6562C79.4621 83.1255 75.4462 82.2623 72.2589 82.724C68.4569 82.8445 67.214 85.7487 65.5903 88.6998C62.4498 94.6756 59.4429 95.4519 53.81 91.7781C50.9701 89.9713 48.2974 88.1243 44.9363 89.8575C42.3638 90.9081 40.0451 92.7952 37.2454 93.2703C36.7175 93.364 36.1696 93.3172 35.6484 93.2034L35.5949 93.1967C35.5815 93.1767 35.5548 93.2101 35.468 93.4711L35.6551 92.7751H35.6484Z" fill="#1B1D19"/>
<path d="M48.0111 60.8149C47.0542 62.0144 45.2313 62.0246 44.2582 60.8345L33.3862 49.2337C32.5858 48.2505 32.7362 46.8054 33.7182 46.0036C34.7001 45.2018 36.1431 45.3522 36.9435 46.3354L46.1151 55.862L65.9093 31.1156C66.6528 30.0887 68.083 29.8558 69.1082 30.6001C70.1334 31.3445 70.3657 32.7767 69.6222 33.8036C69.5774 33.8675 69.5265 33.9242 69.4822 33.9814L48.0106 60.8216L48.0111 60.8149Z" fill="white"/>
</g>
<defs>
<clipPath id="clip0_1125_6376">
<rect width="96" height="94" fill="white"/>
</clipPath>
</defs>
</svg>
