<svg width="21" height="18" viewBox="0 0 21 18" fill="none" xmlns="http://www.w3.org/2000/svg">
<path d="M0.255938 8.38094L8.13094 0.505936C8.29512 0.341752 8.51781 0.249513 8.75 0.249513C8.9822 0.249513 9.20488 0.341752 9.36906 0.505937C9.53325 0.670123 9.62549 0.892806 9.62549 1.125C9.62549 1.35719 9.53325 1.57988 9.36906 1.74406L2.98703 8.125L20.125 8.125C20.3571 8.125 20.5796 8.21719 20.7437 8.38128C20.9078 8.54538 21 8.76794 21 9C21 9.23207 20.9078 9.45463 20.7437 9.61872C20.5796 9.78281 20.3571 9.875 20.125 9.875L2.98703 9.875L9.36906 16.2559C9.53325 16.4201 9.62549 16.6428 9.62549 16.875C9.62549 17.1072 9.53325 17.3299 9.36906 17.4941C9.20488 17.6582 8.98219 17.7505 8.75 17.7505C8.51781 17.7505 8.29512 17.6582 8.13094 17.4941L0.255938 9.61906C0.174584 9.5378 0.110045 9.4413 0.0660122 9.33507C0.0219772 9.22885 -0.000685891 9.11499 -0.000685881 9C-0.00068587 8.88501 0.0219773 8.77115 0.0660122 8.66493C0.110045 8.5587 0.174584 8.4622 0.255938 8.38094Z" fill="#3CB7A8"/>
</svg>
