<svg width="59" height="44" viewBox="0 0 59 44" fill="none" xmlns="http://www.w3.org/2000/svg">
<rect x="58" y="43.5" width="57" height="43" rx="21.5" transform="rotate(-180 58 43.5)" stroke="#3CB7A8"/>
<path d="M19.2559 21.3809L27.1309 13.5059C27.2951 13.3418 27.5178 13.2495 27.75 13.2495C27.9822 13.2495 28.2049 13.3418 28.3691 13.5059C28.5333 13.6701 28.6255 13.8928 28.6255 14.125C28.6255 14.3572 28.5333 14.5799 28.3691 14.7441L21.987 21.125L39.125 21.125C39.3571 21.125 39.5796 21.2172 39.7437 21.3813C39.9078 21.5454 40 21.7679 40 22C40 22.2321 39.9078 22.4546 39.7437 22.6187C39.5796 22.7828 39.3571 22.875 39.125 22.875L21.987 22.875L28.3691 29.2559C28.5332 29.4201 28.6255 29.6428 28.6255 29.875C28.6255 30.1072 28.5332 30.3299 28.3691 30.4941C28.2049 30.6582 27.9822 30.7505 27.75 30.7505C27.5178 30.7505 27.2951 30.6582 27.1309 30.4941L19.2559 22.6191C19.1746 22.5378 19.11 22.4413 19.066 22.3351C19.022 22.2288 18.9993 22.115 18.9993 22C18.9993 21.885 19.022 21.7712 19.066 21.6649C19.11 21.5587 19.1746 21.4622 19.2559 21.3809Z" fill="#3CB7A8"/>
</svg>
